<?xml version="1.0" encoding="UTF-8" standalone="no"?>
<!-- Created with Inkscape (http://www.inkscape.org/) -->

<svg
   width="155.00031"
   height="237.45105"
   viewBox="0 0 155.00031 237.45106"
   version="1.1"
   id="svg41147"
   sodipodi:docname="paper.svg"
   inkscape:version="1.2.2 (732a01da63, 2022-12-09)"
   xml:space="preserve"
   xmlns:inkscape="http://www.inkscape.org/namespaces/inkscape"
   xmlns:sodipodi="http://sodipodi.sourceforge.net/DTD/sodipodi-0.dtd"
   xmlns="http://www.w3.org/2000/svg"
   xmlns:svg="http://www.w3.org/2000/svg"><sodipodi:namedview
     id="namedview41149"
     pagecolor="#ffffff"
     bordercolor="#000000"
     borderopacity="0.25"
     inkscape:showpageshadow="2"
     inkscape:pageopacity="0.0"
     inkscape:pagecheckerboard="0"
     inkscape:deskcolor="#d1d1d1"
     inkscape:document-units="px"
     showgrid="false"
     inkscape:zoom="0.74920735"
     inkscape:cx="-38.040203"
     inkscape:cy="113.45324"
     inkscape:window-width="1920"
     inkscape:window-height="1027"
     inkscape:window-x="-8"
     inkscape:window-y="379"
     inkscape:window-maximized="1"
     inkscape:current-layer="svg41147" /><defs
     id="defs41144" /><g
     inkscape:label="paper"
     inkscape:groupmode="layer"
     id="layer1"
     transform="translate(-144.9997,-62.54895)"
     sodipodi:insensitive="true"
     style="display:inline"><path
       style="opacity:1;fill:#ffffff;fill-opacity:1;stroke:#000000;stroke-width:10;stroke-linecap:round;stroke-linejoin:round;stroke-miterlimit:15;stroke-dasharray:none;paint-order:fill markers stroke"
       d="m 149.99981,222.49005 c 0,0 0,72.50746 72.49999,72.50995 72.49999,0.002 72.5,-72.5 72.5,-72.5 V 162 c 0,0 -1.3e-4,-14.5 -14.5,-14.5 -14.49987,0 -14.5,14.5 -14.5,14.5 v 48.8912 l 1.3e-4,-114.04126 c 0,0 0.003,-14.5 -14.5,-14.5 -14.50313,0 -14.5,14.5 -14.5,14.5 v 78.39169 l -1e-5,-93.19268 c 0,0 1e-5,-14.5 -14.49999,-14.5 -14.5,0 -14.5,14.5 -14.5,14.5 v 93.19268 -78.32772 c 0,0 0,-14.5 -14.5,-14.5 -14.5,0 -14.5,14.5 -14.5,14.5 v 85.19119 -50.0705 c 0,0 0,-14.50433 -14.50627,-14.50119 -14.50627,0.003 -14.49373,14.50119 -14.49373,14.50119 z"
       id="path4766"
       sodipodi:nodetypes="czcczccczccczccczccczcc" /></g></svg>
