<?xml version="1.0" encoding="UTF-8" standalone="no"?>
<!-- Created with Inkscape (http://www.inkscape.org/) -->

<svg
   width="155.00031"
   height="237.45105"
   viewBox="0 0 155.00031 237.45106"
   version="1.1"
   id="svg41147"
   sodipodi:docname="rock.svg"
   inkscape:version="1.2.2 (732a01da63, 2022-12-09)"
   xml:space="preserve"
   xmlns:inkscape="http://www.inkscape.org/namespaces/inkscape"
   xmlns:sodipodi="http://sodipodi.sourceforge.net/DTD/sodipodi-0.dtd"
   xmlns="http://www.w3.org/2000/svg"
   xmlns:svg="http://www.w3.org/2000/svg"><sodipodi:namedview
     id="namedview41149"
     pagecolor="#ffffff"
     bordercolor="#000000"
     borderopacity="0.25"
     inkscape:showpageshadow="2"
     inkscape:pageopacity="0.0"
     inkscape:pagecheckerboard="0"
     inkscape:deskcolor="#d1d1d1"
     inkscape:document-units="px"
     showgrid="false"
     inkscape:zoom="0.74920735"
     inkscape:cx="-397.75371"
     inkscape:cy="114.78798"
     inkscape:window-width="1920"
     inkscape:window-height="1027"
     inkscape:window-x="-8"
     inkscape:window-y="379"
     inkscape:window-maximized="1"
     inkscape:current-layer="svg41147" /><defs
     id="defs41144" /><g
     inkscape:groupmode="layer"
     id="layer2"
     inkscape:label="rock"
     transform="translate(-757.28707,577.95879)"
     sodipodi:insensitive="true"
     style="display:inline"><g
       id="g5481"
       transform="translate(-53.241195,-930.3059)"><path
         style="opacity:1;fill:#ffffff;fill-opacity:1;stroke:#000000;stroke-width:10;stroke-linecap:round;stroke-linejoin:round;stroke-miterlimit:15;stroke-dasharray:none;paint-order:fill markers stroke"
         d="m 815.52842,461.48773 1.4e-4,50.81043 c 0,0 1.3e-4,72.5 72.5,72.5 72.49987,0 72.5,-72.5 72.5,-72.5 L 939.32343,479.5199 Z"
         id="path5471"
         sodipodi:nodetypes="cczccc" /><path
         style="opacity:1;fill:#ffffff;fill-opacity:1;stroke:#000000;stroke-width:10;stroke-linecap:round;stroke-linejoin:round;stroke-miterlimit:15;stroke-dasharray:none;paint-order:fill markers stroke"
         d="m 815.52869,441.99188 c 0,0 0,-14.5 14.5,-14.5 14.5,0 14.5,14.5 14.5,14.5 v 35.07044 c 0,0 0,14.5 -14.5,14.5 -14.5,0 -14.5,-12.02253 -14.5,-12.02253 z"
         id="path5457"
         sodipodi:nodetypes="czcczcc" /><path
         style="opacity:1;fill:#ffffff;fill-opacity:1;stroke:#000000;stroke-width:10;stroke-linecap:round;stroke-linejoin:round;stroke-miterlimit:15;stroke-dasharray:none;paint-order:fill markers stroke"
         d="m 873.52869,433.444 v 46.09579 c 0,0 0,14.5 -14.5,14.5 -14.5,0 -14.5,-16.97747 -14.5,-16.97747 V 433.444 c 0,0 1.15328,-14.5 14.5,-14.5 13.34672,0 14.5,14.5 14.5,14.5 z"
         id="path5459"
         sodipodi:nodetypes="cczcczc" /><path
         style="opacity:1;fill:#ffffff;fill-opacity:1;stroke:#000000;stroke-width:10;stroke-linecap:round;stroke-linejoin:round;stroke-miterlimit:15;stroke-dasharray:none;paint-order:fill markers stroke"
         d="m 888.02869,418.944 c 11.85693,0 14.5,14.5 14.5,14.5 v 46.09579 c 0,0 0,14.5 -14.5,14.5 -14.5,0 -14.5,-14.5 -14.5,-14.5 V 433.444 c 0,0 2.64307,-14.5 14.5,-14.5 z"
         id="path5461"
         sodipodi:nodetypes="zcczccz" /><path
         style="opacity:1;fill:#ffffff;fill-opacity:1;stroke:#000000;stroke-width:10;stroke-linecap:round;stroke-linejoin:round;stroke-miterlimit:15;stroke-dasharray:none;paint-order:fill markers stroke"
         d="m 917.02869,427.49188 c 14.5,0 14.5,14.5 14.5,14.5 l -1.3e-4,37.52802 c 0,0 1.3e-4,15.08462 -14.49987,14.51989 -14.5,-0.56473 -14.5,-16.97747 -14.5,-16.97747 v -35.07044 c 0,0 0,-14.5 14.5,-14.5 z"
         id="path5463"
         sodipodi:nodetypes="zcczccz" /><path
         style="opacity:1;fill:#ffffff;fill-opacity:1;stroke:#000000;stroke-width:10;stroke-linecap:round;stroke-linejoin:round;stroke-miterlimit:15;stroke-dasharray:none;paint-order:fill markers stroke"
         d="M 960.52856,512.29816 V 479.5199 c 0,-6.15034 -5.52031,-14.5 -14.5,-14.5 l -28.99987,0.0199 c 0,0 -14.5,-0.01 -14.5,14.5 0,14.50995 14.5,14.5 14.5,14.5 h 14.49987 v 11.32765"
         id="path5467"
         sodipodi:nodetypes="cccczccc" /></g></g></svg>
