<?xml version="1.0" encoding="UTF-8" standalone="no"?>
<!-- Created with Inkscape (http://www.inkscape.org/) -->

<svg
   width="155.00031"
   height="237.45105"
   viewBox="0 0 155.00031 237.45106"
   version="1.1"
   id="svg41147"
   sodipodi:docname="scissors.svg"
   inkscape:version="1.2.2 (732a01da63, 2022-12-09)"
   xml:space="preserve"
   xmlns:inkscape="http://www.inkscape.org/namespaces/inkscape"
   xmlns:sodipodi="http://sodipodi.sourceforge.net/DTD/sodipodi-0.dtd"
   xmlns="http://www.w3.org/2000/svg"
   xmlns:svg="http://www.w3.org/2000/svg"><sodipodi:namedview
     id="namedview41149"
     pagecolor="#ffffff"
     bordercolor="#000000"
     borderopacity="0.25"
     inkscape:showpageshadow="2"
     inkscape:pageopacity="0.0"
     inkscape:pagecheckerboard="0"
     inkscape:deskcolor="#d1d1d1"
     inkscape:document-units="px"
     showgrid="false"
     inkscape:zoom="0.74920735"
     inkscape:cx="-397.75371"
     inkscape:cy="114.78798"
     inkscape:window-width="1920"
     inkscape:window-height="1027"
     inkscape:window-x="-8"
     inkscape:window-y="379"
     inkscape:window-maximized="1"
     inkscape:current-layer="svg41147" /><defs
     id="defs41144" /><g
     inkscape:groupmode="layer"
     id="layer3"
     inkscape:label="scisors"
     sodipodi:insensitive="true"
     style="display:inline"><g
       id="g5243"
       transform="translate(-810.52827,-352.34711)"><path
         style="opacity:1;fill:#ffffff;fill-opacity:1;stroke:#000000;stroke-width:10;stroke-linecap:round;stroke-linejoin:round;stroke-miterlimit:15;stroke-dasharray:none;paint-order:fill markers stroke"
         d="m 815.52856,512.29816 c 0,0 0,72.5 72.5,72.5 72.5,0 72.5,-72.5 72.5,-72.5 V 479.5199 c 0,-6.90613 -5.80436,-14.48011 -14.49987,-14.48011 h -13.47702 l 22.10891,-82.51146 c 0,0 3.7529,-14.00594 -10.25304,-17.75883 -14.00594,-3.75289 -17.75883,10.25307 -17.75883,10.25307 l -24.12005,90.01722 2e-5,-93.19268 c 0,0 10e-6,-14.5 -14.49999,-14.5 -14.5,0 -14.5,14.5 -14.5,14.5 v 93.19268 h -58 z"
         id="path4963"
         sodipodi:nodetypes="czccccczccczcccc" /><path
         style="opacity:1;fill:#ffffff;fill-opacity:1;stroke:#000000;stroke-width:10;stroke-linecap:round;stroke-linejoin:round;stroke-miterlimit:15;stroke-dasharray:none;paint-order:fill markers stroke"
         d="m 815.52869,441.99188 c 0,0 -3.6e-4,-14.5 14.5,-14.5 14.50036,0 14.5,14.5 14.5,14.5 v 35.07044 c 0,0 1.9e-4,14.5 -14.5,14.5 -14.50019,0 -14.5,-14.5 -14.5,-14.5 z"
         id="path5006"
         sodipodi:nodetypes="czcczcc" /><path
         style="opacity:1;fill:#ffffff;fill-opacity:1;stroke:#000000;stroke-width:10;stroke-linecap:round;stroke-linejoin:round;stroke-miterlimit:15;stroke-dasharray:none;paint-order:fill markers stroke"
         d="m 844.52869,433.444 c 0,0 1.15328,-14.5 14.5,-14.5 13.34672,0 14.5,14.5 14.5,14.5 v 46.09579 c 0,0 0,14.5 -14.5,14.5 -14.5,0 -14.5,-14.5 -14.5,-14.5 z"
         id="path5040"
         sodipodi:nodetypes="czcczcc" /><path
         style="opacity:1;fill:#ffffff;fill-opacity:1;stroke:#000000;stroke-width:10;stroke-linecap:round;stroke-linejoin:round;stroke-miterlimit:15;stroke-dasharray:none;paint-order:fill markers stroke"
         d="m 932.55168,465.03979 h -15.52299 c 0,0 -14.5,0 -14.5,14.5 0,14.5 14.5,14.5 14.5,14.5 h 14.49987 v 18.25837"
         id="path5044"
         sodipodi:nodetypes="cczccc" /></g></g></svg>
